<svg width="164" height="165" viewBox="0 0 164 165" fill="none" xmlns="http://www.w3.org/2000/svg">
<g filter="url(#filter0_d)">
<path d="M147.8 80.4993C147.8 118.362 117.369 148.999 79.9001 148.999C42.4311 148.999 12 118.362 12 80.4993C12 42.6368 42.4311 12 79.9001 12C117.369 12 147.8 42.6368 147.8 80.4993Z" stroke="#50C67D" stroke-width="8"/>
</g>
<g filter="url(#filter1_d)">
<path d="M65.2233 47.791C54.3435 47.791 45.4922 56.7915 45.4922 67.8548C45.4922 78.8366 54.3435 87.771 65.2233 87.771C67.4871 87.771 69.6974 87.3885 71.8067 86.6342C73.8631 87.3694 76.0745 87.771 78.3773 87.771C80.6411 87.771 82.8515 87.3885 84.9608 86.6342C87.0172 87.3694 89.2285 87.771 91.5314 87.771C102.411 87.771 111.262 78.8366 111.262 67.8548C111.262 56.7915 102.411 47.791 91.5314 47.791C89.2328 47.791 87.0255 48.1941 84.9725 48.9321C82.8595 48.1752 80.6454 47.791 78.3773 47.791C76.0787 47.791 73.8715 48.1941 71.8184 48.9321C69.7054 48.1752 67.4913 47.791 65.2233 47.791ZM65.2233 83.3452C56.7613 83.3452 49.8769 76.3962 49.8769 67.8548C49.8769 59.2321 56.7613 52.2168 65.2233 52.2168C65.4853 52.2168 65.7464 52.2238 66.0064 52.2369C61.521 55.9179 58.6462 61.5509 58.6462 67.8548C58.6462 74.0949 61.5049 79.6729 65.969 83.3273C65.7212 83.3391 65.4728 83.3452 65.2233 83.3452ZM89.339 52.3771V57.1708C86.7873 58.0843 84.9543 60.544 84.9543 63.4289C84.9543 67.0895 87.9048 70.0677 91.5314 70.0677C92.7402 70.0677 93.7237 71.0604 93.7237 72.2806C93.7237 73.5008 92.7402 74.4935 91.5314 74.4935C90.3225 74.4935 89.339 73.5008 89.339 72.2806H84.9543C84.9543 75.1655 86.7873 77.6252 89.339 78.5387V83.1864C81.9118 82.1093 76.185 75.645 76.185 67.8548C76.185 59.9905 81.9118 53.4645 89.339 52.3771ZM106.878 67.8548C106.878 75.645 101.151 82.1093 93.7237 83.1864V78.5387C96.2755 77.6252 98.1084 75.1655 98.1084 72.2806C98.1084 68.62 95.1579 65.6419 91.5314 65.6419C90.3225 65.6419 89.339 64.6491 89.339 63.4289C89.339 62.2087 90.3225 61.216 91.5314 61.216C92.7402 61.216 93.7237 62.2087 93.7237 63.4289H98.1084C98.1084 60.544 96.2755 58.0843 93.7237 57.1708V52.3771C101.151 53.4645 106.878 59.9905 106.878 67.8548ZM79.1604 52.2369C74.675 55.9179 71.8003 61.5509 71.8003 67.8548C71.8003 74.0949 74.659 79.6729 79.123 83.3273C78.8754 83.3391 78.6268 83.3452 78.3773 83.3452C69.9153 83.3452 63.0309 76.3962 63.0309 67.8548C63.0309 59.2321 69.9153 52.2168 78.3773 52.2168C78.6394 52.2168 78.9004 52.2238 79.1604 52.2369Z" fill="#50C67D"/>
</g>
<g filter="url(#filter2_d)">
<path d="M111.88 101.172C109.43 99.643 106.428 99.5068 103.859 100.804L89.383 108.051C89.305 106.784 89.0023 105.53 88.4728 104.337C87.3041 101.705 85.1636 99.6506 82.4457 98.5532L69.3668 93.2726C67.6001 92.5592 65.7394 92.1974 63.8363 92.1974C61.5403 92.1974 59.2414 92.7443 57.187 93.7791L54.115 95.2884V92.1973H40.9609V118.752H54.115V113.624L73.4337 121.5C76.4337 122.711 79.5929 123.326 82.824 123.326C86.8249 123.326 90.7858 122.394 94.2901 120.625L115.793 109.615V108.256C115.793 105.348 114.33 102.7 111.88 101.172ZM49.7303 114.326H45.3456V96.6231H49.7303V114.326ZM92.3177 116.672C89.4716 118.109 86.1001 118.9 82.824 118.9C80.1534 118.9 77.5419 118.392 75.0691 117.394L54.115 108.85V100.211L59.1372 97.7427C60.5885 97.0102 62.2133 96.6231 63.836 96.6231C65.1787 96.6231 66.4915 96.8783 67.7379 97.3817L80.8168 102.662C83.5103 103.75 85.1001 106.276 85.0095 108.934L73.021 104.281L71.4475 108.412L86.703 114.333L105.813 104.766C107.038 104.147 108.409 104.209 109.574 104.936C110.369 105.432 110.932 106.152 111.21 106.998L92.3177 116.672Z" fill="#50C67D"/>
</g>
<defs>
<filter id="filter0_d" x="0" y="0" width="163.8" height="164.999" filterUnits="userSpaceOnUse" color-interpolation-filters="sRGB">
<feFlood flood-opacity="0" result="BackgroundImageFix"/>
<feColorMatrix in="SourceAlpha" type="matrix" values="0 0 0 0 0 0 0 0 0 0 0 0 0 0 0 0 0 0 127 0" result="hardAlpha"/>
<feOffset dx="2" dy="2"/>
<feGaussianBlur stdDeviation="5"/>
<feColorMatrix type="matrix" values="0 0 0 0 0 0 0 0 0 0 0 0 0 0 0 0 0 0 0.25 0"/>
<feBlend mode="normal" in2="BackgroundImageFix" result="effect1_dropShadow"/>
<feBlend mode="normal" in="SourceGraphic" in2="effect1_dropShadow" result="shape"/>
</filter>
<filter id="filter1_d" x="37.4922" y="39.791" width="85.7703" height="59.98" filterUnits="userSpaceOnUse" color-interpolation-filters="sRGB">
<feFlood flood-opacity="0" result="BackgroundImageFix"/>
<feColorMatrix in="SourceAlpha" type="matrix" values="0 0 0 0 0 0 0 0 0 0 0 0 0 0 0 0 0 0 127 0" result="hardAlpha"/>
<feOffset dx="2" dy="2"/>
<feGaussianBlur stdDeviation="5"/>
<feColorMatrix type="matrix" values="0 0 0 0 0 0 0 0 0 0 0 0 0 0 0 0 0 0 0.25 0"/>
<feBlend mode="normal" in2="BackgroundImageFix" result="effect1_dropShadow"/>
<feBlend mode="normal" in="SourceGraphic" in2="effect1_dropShadow" result="shape"/>
</filter>
<filter id="filter2_d" x="32.9609" y="84.1973" width="94.8319" height="51.1283" filterUnits="userSpaceOnUse" color-interpolation-filters="sRGB">
<feFlood flood-opacity="0" result="BackgroundImageFix"/>
<feColorMatrix in="SourceAlpha" type="matrix" values="0 0 0 0 0 0 0 0 0 0 0 0 0 0 0 0 0 0 127 0" result="hardAlpha"/>
<feOffset dx="2" dy="2"/>
<feGaussianBlur stdDeviation="5"/>
<feColorMatrix type="matrix" values="0 0 0 0 0 0 0 0 0 0 0 0 0 0 0 0 0 0 0.25 0"/>
<feBlend mode="normal" in2="BackgroundImageFix" result="effect1_dropShadow"/>
<feBlend mode="normal" in="SourceGraphic" in2="effect1_dropShadow" result="shape"/>
</filter>
</defs>
</svg>
