<svg width="421" height="203" viewBox="0 0 421 203" fill="none" xmlns="http://www.w3.org/2000/svg">
<path d="M404.397 104.78C404.397 114.557 404.275 124.334 404.397 134.111C404.519 137.899 403.177 138.999 399.514 138.999C364.478 138.877 329.564 138.999 294.527 138.877C286.104 138.877 280.244 133.133 280.122 124.823C280 94.8807 280 64.9389 280 34.9971C280 26.3201 286.348 20.3318 295.382 20.3318C307.956 20.3318 320.652 20.6984 333.226 20.454C336.4 20.3318 339.94 19.2319 342.626 17.5209C351.538 11.777 362.403 11.5325 371.436 16.7876C374.855 18.743 379.127 20.0873 383.034 20.454C389.26 21.065 389.26 20.6984 390.114 29.9865C395.119 30.3531 399.392 31.6974 398.416 38.1746C397.073 38.1746 395.608 38.1746 394.265 38.1746C394.265 33.4084 390.725 34.6305 388.161 34.6305C359.351 34.6305 330.418 34.6305 301.608 34.6305C299.899 34.6305 298.068 34.8749 295.748 34.9971C295.748 38.0524 295.382 40.7411 295.87 43.1853C296.114 44.163 298.19 44.6518 299.41 45.3851C333.714 45.3851 368.14 45.3851 402.444 45.3851C403.055 47.2183 404.153 48.9292 404.153 50.7624C404.397 60.6615 404.275 70.6829 404.397 80.582C402.81 80.582 401.345 80.582 399.758 80.582C399.758 70.4385 399.758 60.2949 399.758 49.6625C396.951 49.6625 394.753 49.6625 392.556 49.6625C364.234 49.6625 336.034 49.7847 307.712 49.5403C300.021 49.5403 292.33 48.6848 284.395 48.196C284.395 71.905 284.395 96.4695 284.395 121.156C284.395 131.3 287.691 134.599 297.945 134.599C330.052 134.599 362.281 134.599 394.387 134.599C396.096 134.599 397.927 134.477 399.758 134.355C399.758 124.089 399.758 114.312 399.758 104.535C401.468 104.78 402.932 104.78 404.397 104.78ZM341.161 29.8643C352.026 29.8643 362.891 29.8643 373.878 29.8643C374.61 29.131 375.953 27.7867 375.831 27.5422C371.681 20.9428 365.821 17.3987 357.886 17.2765C349.584 17.2765 343.603 20.9428 339.208 27.6645C339.086 27.9089 340.551 29.131 341.161 29.8643ZM290.987 44.4074C291.109 42.8187 291.231 41.7188 291.353 40.6189C291.597 30.9642 292.33 30.2309 301.852 30.2309C311.008 30.2309 320.164 30.4753 329.197 30.1087C331.273 29.9865 333.348 28.1533 335.423 27.0534C335.179 26.4423 334.935 25.7091 334.569 25.098C321.384 25.098 308.2 25.098 295.016 25.098C289.888 25.098 286.226 27.42 285.005 32.3085C283.784 37.1969 285.371 41.5966 290.987 44.4074Z" fill="#2F2E2D"/>
<path d="M404.399 104.781C402.934 104.781 401.469 104.781 399.882 104.781C390.727 104.781 381.571 104.659 372.537 104.536C364.968 104.414 359.719 99.6479 359.719 92.804C359.719 85.9602 364.968 81.0717 372.537 80.9495C381.693 80.8273 390.849 80.8273 399.882 80.7051C401.469 80.7051 402.934 80.7051 404.521 80.7051C405.62 81.6828 407.817 82.7827 407.817 83.7604C407.94 89.8709 407.573 96.1037 407.207 102.337C407.207 103.314 405.376 103.925 404.399 104.781Z" fill="#50C67D"/>
<path d="M394.387 38.2969C395.729 38.2969 397.194 38.2969 398.537 38.2969C403.42 38.7857 402.322 42.5743 402.688 45.6296C368.384 45.6296 333.958 45.6296 299.654 45.6296C298.922 40.0078 301.363 38.4191 306.979 38.4191C336.033 38.5413 365.21 38.2969 394.387 38.2969Z" fill="#50C67D"/>
<path d="M416.116 36.9524C414.04 34.7526 411.965 32.675 410.5 31.0863C411.599 29.742 413.552 27.5422 415.139 25.709C416.97 27.6644 418.923 29.6198 420.999 31.8196C419.534 33.4083 417.458 35.4859 416.116 36.9524Z" fill="#50C67D"/>
<path d="M400.004 80.8263C390.848 80.8263 381.693 80.8263 372.659 81.0707C365.09 81.193 359.963 86.0814 359.841 92.9253C359.841 99.7691 365.09 104.535 372.659 104.658C381.815 104.78 390.971 104.78 400.004 104.902C400.004 114.679 400.004 124.456 400.004 134.722C398.051 134.844 396.342 134.966 394.633 134.966C362.526 134.966 330.298 134.966 298.191 134.966C288.059 134.966 284.641 131.666 284.641 121.523C284.641 96.836 284.641 72.2715 284.641 48.5625C292.576 49.0513 300.267 49.7846 307.958 49.9068C336.28 50.029 364.48 50.029 392.802 50.029C394.999 50.029 397.196 50.029 400.004 50.029C400.004 60.5392 400.004 70.6828 400.004 80.8263Z" fill="#FEFEFE"/>
<path d="M394.387 38.2959C365.21 38.2959 336.034 38.5403 306.857 38.2959C301.242 38.2959 298.8 39.8846 299.532 45.5064C298.312 44.7731 296.236 44.162 295.992 43.3066C295.504 40.8623 295.87 38.1737 295.87 35.1184C298.19 34.9962 299.899 34.7518 301.73 34.7518C330.54 34.7518 359.473 34.7518 388.283 34.7518C390.847 34.7518 394.387 33.5296 394.387 38.2959Z" fill="#FEFEFE"/>
<path d="M290.989 44.4073C285.373 41.5965 283.786 37.1969 285.129 32.064C286.35 27.1755 290.012 24.8535 295.139 24.8535C308.324 24.8535 321.508 24.8535 334.692 24.8535C334.937 25.4646 335.181 26.1978 335.547 26.8089C333.472 27.9088 331.518 29.742 329.321 29.8642C320.165 30.2308 311.009 29.9864 301.976 29.9864C292.454 29.9864 291.721 30.7197 291.477 40.3744C291.233 41.7187 291.111 42.8186 290.989 44.4073Z" fill="#50C67D"/>
<path d="M373.877 29.864C363.012 29.864 352.147 29.864 341.16 29.864C350.194 16.6651 365.087 16.6651 373.877 29.864Z" fill="#50C67D"/>
<path d="M373.877 29.8641C365.088 16.6652 350.194 16.6652 341.16 29.8641C340.428 29.1308 339.085 27.7865 339.207 27.5421C343.602 20.9426 349.584 17.1541 357.763 17.2763C365.698 17.3985 371.558 21.0649 375.708 27.5421C375.952 27.9087 374.61 29.1308 373.877 29.8641Z" fill="#FEFEFE"/>
<g clip-path="url(#clip0)">
<path d="M162.41 33.8059C152.592 34.8051 145.104 38.6353 139.612 45.6296C136.451 49.7928 133.289 51.7912 127.798 50.1259C122.14 48.294 117.148 48.9602 112.156 53.7895C104.335 61.1169 94.3506 61.4499 84.0336 59.1185C80.7055 58.4524 76.379 58.7854 73.5502 60.4507C47.924 76.2711 36.1093 105.913 43.2647 135.223C43.9303 138.22 44.2631 141.218 44.7623 144.215C43.9303 144.548 42.9319 145.048 42.0998 145.381C40.7686 143.216 38.9382 141.218 38.2726 138.886C28.9539 111.076 39.1046 79.6017 63.2331 60.1177C66.2284 57.7863 69.3901 55.4548 72.3853 53.29C60.9035 36.4704 60.2379 22.3154 70.3885 10.6583C79.7071 0.000366677 94.1842 -2.99717 106.665 3.16444C121.142 10.1587 125.967 22.9815 121.807 42.632C128.297 44.9635 133.123 43.7977 138.115 38.3023C145.603 30.1423 155.754 26.4786 168.068 28.3105C168.068 38.1357 168.068 47.6279 168.068 56.9536C168.068 58.952 167.402 61.2834 168.234 62.6156C174.557 72.2744 181.047 81.7666 188.036 90.9257C189.201 92.4245 193.194 91.7584 196.023 91.7584C207.672 91.9249 211 95.089 211 106.413C211 115.073 210.833 123.566 210.667 132.225C210.5 141.051 207.505 144.382 198.353 143.882C190.865 143.549 187.703 146.88 183.044 152.708C172.56 165.864 172.893 180.685 173.392 196.173C163.907 196.173 155.421 196.173 146.601 196.173C145.936 193.508 145.27 190.844 144.605 188.179C123.804 196.006 103.336 196.006 82.2032 187.513C81.8704 190.677 81.5375 193.175 81.2047 195.84C76.7118 197.338 69.8893 194.341 68.7244 202.168C68.558 202.667 65.23 203 63.2331 203C46.5927 203 29.9524 202.834 13.312 203.167C8.48628 203.167 5.99023 201.835 6.48944 196.672C6.82224 193.342 5.49101 191.177 2.82855 188.179C-0.166714 184.682 -0.665926 173.192 1.33092 172.026C8.48628 168.196 5.82382 162.367 6.98865 156.705C8.98549 156.372 11.1487 155.706 13.1456 155.706C29.4532 155.539 45.9271 155.373 62.2347 155.539C64.8972 155.539 69.8893 157.704 69.8893 158.87C69.8893 164.199 70.3885 171.193 67.2268 174.524C63.3995 178.687 63.2331 180.186 67.0604 183.516C69.3901 185.681 71.0541 188.512 72.8845 191.01C73.883 190.511 74.715 190.511 74.715 190.178C77.7103 179.686 77.7103 179.853 88.0273 183.516C105 189.678 122.14 189.678 139.113 183.516C150.096 179.52 150.096 179.353 151.926 190.677C152.925 190.844 153.923 191.01 154.922 191.01C158.749 191.01 162.743 191.01 166.403 191.01C166.903 190.344 167.402 189.844 167.402 189.511C163.741 171.36 173.06 157.038 181.879 142.883C183.543 140.219 189.201 138.886 193.028 138.72C204.344 138.22 204.344 138.553 204.344 127.396C204.344 120.235 204.177 112.908 204.344 105.747C204.51 100.418 202.679 97.5869 197.188 98.4196C186.871 100.085 180.381 96.5877 177.553 86.2629C176.721 83.4319 174.89 80.4343 172.727 78.6025C161.245 69.7764 160.912 57.7863 161.911 44.9635C162.576 41.2998 162.41 37.8027 162.41 33.8059ZM69.3901 30.4753C69.5565 43.9643 80.7055 55.1218 93.685 54.7887C106.498 54.6222 118.146 42.7986 117.98 29.9758C117.814 16.8199 106.165 5.66238 93.1858 5.82892C79.7071 5.99544 69.2237 16.8199 69.3901 30.4753ZM6.65584 182.85C23.7954 182.85 40.6022 182.85 57.7418 182.85C57.7418 180.186 57.7418 178.021 57.7418 175.356C40.6022 175.356 23.7954 175.356 6.65584 175.356C6.65584 177.854 6.65584 180.186 6.65584 182.85ZM11.3151 194.008C11.9808 194.84 12.8128 195.673 13.4784 196.506C30.4516 196.506 47.4248 196.506 64.7308 196.506C64.5644 194.008 64.3979 191.843 64.0651 189.511C48.0904 189.511 32.7812 189.345 17.3057 189.678C15.3088 189.678 13.312 192.509 11.3151 194.008ZM64.7308 161.867C46.7592 161.867 29.6196 161.867 12.8128 161.867C10.8159 168.029 13.8112 168.862 18.4705 168.695C33.6133 168.529 48.756 168.695 64.2315 168.695C64.3979 166.53 64.5644 164.532 64.7308 161.867Z" fill="#2F2E2D"/>
<path d="M152.095 127.729C143.608 127.729 139.115 124.565 140.114 119.069C141.279 112.908 145.938 111.909 151.429 112.075C156.921 112.242 163.078 111.243 164.575 118.736C165.574 124.565 161.247 127.729 152.095 127.729Z" fill="#50C67D"/>
<path d="M129.129 65.9452C123.471 70.7746 93.5187 71.1077 87.1953 66.9444C91.5218 62.4481 120.975 61.6155 129.129 65.9452Z" fill="#2F2E2D"/>
<path d="M30.7852 47.7946C33.4476 45.1301 36.2765 42.4657 38.4397 40.3008C40.4366 42.6322 43.099 45.6297 45.2623 48.2942C43.9311 49.2934 40.603 51.6248 37.4413 53.9562C38.1069 54.6224 38.7725 55.2885 39.4382 55.9546C37.4413 52.4575 35.4445 48.9603 33.4476 45.4632C32.4492 46.1293 31.6172 46.962 30.7852 47.7946Z" fill="#50C67D"/>
<path d="M157.753 98.4199C159.916 101.584 161.913 103.416 161.913 105.248C161.913 106.746 159.084 109.577 158.086 109.411C156.255 109.078 153.593 106.913 153.426 105.248C153.26 103.416 155.59 101.584 157.753 98.4199Z" fill="#2F2E2D"/>
<path d="M69.3926 30.4744C69.2262 16.819 79.7096 5.99452 93.1883 5.82799C106.168 5.66146 117.816 16.9855 117.982 29.9748C118.149 42.7976 106.667 54.6213 93.6875 54.9543C80.708 55.1209 69.559 43.9633 69.3926 30.4744ZM93.6875 12.8222C83.5369 12.6557 76.3815 19.8165 76.2151 29.8083C76.0487 39.6336 83.5369 47.627 92.8555 47.9601C102.507 48.2931 110.994 39.9666 111.16 30.1414C111.16 20.6492 103.505 12.8222 93.6875 12.8222Z" fill="#FEFEFE"/>
<path d="M6.65625 182.849C6.65625 180.185 6.65625 178.02 6.65625 175.355C23.7958 175.355 40.6026 175.355 57.7422 175.355C57.7422 178.02 57.7422 180.185 57.7422 182.849C40.6026 182.849 23.7958 182.849 6.65625 182.849Z" fill="#50C67D"/>
<path d="M11.3164 194.009C13.3133 192.51 15.3101 189.679 17.4733 189.679C32.9489 189.346 48.258 189.512 64.2328 189.512C64.3992 191.844 64.5656 193.842 64.8984 196.507C47.426 196.507 30.6192 196.507 13.6461 196.507C12.814 195.507 11.982 194.675 11.3164 194.009Z" fill="#FEFEFE"/>
<path d="M64.7321 161.867C64.5657 164.532 64.3993 166.53 64.3993 168.695C48.9237 168.695 33.781 168.528 18.6382 168.695C13.9789 168.695 10.8172 167.862 12.9805 161.867C29.6209 161.867 46.594 161.867 64.7321 161.867Z" fill="#FEFEFE"/>
<path d="M93.6861 12.8232C103.504 12.9898 111.158 20.6501 111.158 30.3089C111.158 39.9676 102.505 48.4606 92.854 48.1276C83.5354 47.7945 76.0473 39.6345 76.2137 29.9758C76.3801 19.651 83.5354 12.6567 93.6861 12.8232Z" fill="#50C67D"/>
</g>
<defs>
<clipPath id="clip0">
<rect width="211" height="203" fill="white"/>
</clipPath>
</defs>
</svg>
